<?xml version="1.0" encoding="UTF-8" standalone="no"?>
<svg
   xmlns:dc="http://purl.org/dc/elements/1.1/"
   xmlns:cc="http://creativecommons.org/ns#"
   xmlns:rdf="http://www.w3.org/1999/02/22-rdf-syntax-ns#"
   xmlns:svg="http://www.w3.org/2000/svg"
   xmlns="http://www.w3.org/2000/svg"
   xmlns:sodipodi="http://sodipodi.sourceforge.net/DTD/sodipodi-0.dtd"
   xmlns:inkscape="http://www.inkscape.org/namespaces/inkscape"
   width="210mm"
   height="297mm"
   viewBox="0 0 210 297"
   version="1.1"
   id="svg8"
   inkscape:version="1.0 (4035a4fb49, 2020-05-01)"
   sodipodi:docname="profilelogo.svg">
  <defs
     id="defs2">
    <filter
       style="color-interpolation-filters:sRGB;"
       inkscape:label="Drop Shadow"
       id="filter1639">
      <feFlood
         flood-opacity="0.498039"
         flood-color="rgb(0,0,0)"
         result="flood"
         id="feFlood1629" />
      <feComposite
         in="flood"
         in2="SourceGraphic"
         operator="in"
         result="composite1"
         id="feComposite1631" />
      <feGaussianBlur
         in="composite1"
         stdDeviation="1.79641"
         result="blur"
         id="feGaussianBlur1633" />
      <feOffset
         dx="6"
         dy="6.28743"
         result="offset"
         id="feOffset1635" />
      <feComposite
         in="SourceGraphic"
         in2="offset"
         operator="over"
         result="fbSourceGraphic"
         id="feComposite1637" />
      <feColorMatrix
         result="fbSourceGraphicAlpha"
         in="fbSourceGraphic"
         values="0 0 0 -1 0 0 0 0 -1 0 0 0 0 -1 0 0 0 0 1 0"
         id="feColorMatrix1641" />
      <feFlood
         id="feFlood1643"
         flood-opacity="0.498039"
         flood-color="rgb(0,0,0)"
         result="flood"
         in="fbSourceGraphic" />
      <feComposite
         in2="fbSourceGraphic"
         id="feComposite1645"
         in="flood"
         operator="in"
         result="composite1" />
      <feGaussianBlur
         id="feGaussianBlur1647"
         in="composite1"
         stdDeviation="1.79641"
         result="blur" />
      <feOffset
         id="feOffset1649"
         dx="6"
         dy="6.28743"
         result="offset" />
      <feComposite
         in2="offset"
         id="feComposite1651"
         in="fbSourceGraphic"
         operator="over"
         result="composite2" />
    </filter>
    <filter
       style="color-interpolation-filters:sRGB;"
       inkscape:label="Drop Shadow"
       id="filter1735">
      <feFlood
         flood-opacity="0.498039"
         flood-color="rgb(0,0,0)"
         result="flood"
         id="feFlood1725" />
      <feComposite
         in="flood"
         in2="SourceGraphic"
         operator="in"
         result="composite1"
         id="feComposite1727" />
      <feGaussianBlur
         in="composite1"
         stdDeviation="1.79641"
         result="blur"
         id="feGaussianBlur1729" />
      <feOffset
         dx="2.39521"
         dy="2.39521"
         result="offset"
         id="feOffset1731" />
      <feComposite
         in="SourceGraphic"
         in2="offset"
         operator="over"
         result="composite2"
         id="feComposite1733" />
    </filter>
  </defs>
  <sodipodi:namedview
     id="base"
     pagecolor="#ffffff"
     bordercolor="#666666"
     borderopacity="1.0"
     inkscape:pageopacity="0.0"
     inkscape:pageshadow="2"
     inkscape:zoom="1.979899"
     inkscape:cx="399.09472"
     inkscape:cy="740.90031"
     inkscape:document-units="mm"
     inkscape:current-layer="layer3"
     inkscape:document-rotation="0"
     showgrid="false"
     inkscape:window-width="1920"
     inkscape:window-height="1017"
     inkscape:window-x="-8"
     inkscape:window-y="-8"
     inkscape:window-maximized="1" />
  <metadata
     id="metadata5">
    <rdf:RDF>
      <cc:Work
         rdf:about="">
        <dc:format>image/svg+xml</dc:format>
        <dc:type
           rdf:resource="http://purl.org/dc/dcmitype/StillImage" />
        <dc:title></dc:title>
      </cc:Work>
    </rdf:RDF>
  </metadata>
  <g
     inkscape:groupmode="layer"
     id="layer2"
     inkscape:label="Lager 2">
    <circle
       style="fill:#550000;fill-opacity:1;stroke:#f4f0bb;stroke-width:3.39;stroke-miterlimit:4;stroke-dasharray:none;filter:url(#filter1639)"
       id="path1407"
       cx="105"
       cy="148.5"
       r="87.018097" />
  </g>
  <g
     inkscape:label="Lager 1"
     inkscape:groupmode="layer"
     id="layer1">
    <circle
       style="fill:#aa0000;stroke:#f4f0bb;stroke-width:3.39;fill-opacity:1;stroke-miterlimit:4;stroke-dasharray:none"
       id="path835"
       cx="105"
       cy="148.5"
       r="74.46106" />
  </g>
  <g
     inkscape:label="Lager 3"
     id="layer3"
     inkscape:groupmode="layer">
    <path
       d="m 93.386346,150.81509 c -0.68318,-0.50426 -1.39809,-0.97984 -2.011,-1.57115 -0.84603,-0.92355 -1.74228,-1.79037 -2.51092,-2.78227 -0.91936,-1.2457 -1.52374,-2.67822 -2.0702,-4.1165 -0.76135,-2.14271 -1.30315,-4.35045 -1.81516,-6.56299 -0.62655,-2.89701 -0.91352,-5.84109 -1.10071,-8.79369 -0.0874,-2.5534 -0.0856,-5.15452 0.45218,-7.66678 0.0834,-0.38979 0.20319,-0.77091 0.30477,-1.15637 0.33803,-1.0088 0.66564,-2.03437 1.20475,-2.95888 0.37852,-0.64912 0.888,-1.21267 1.39049,-1.76485 1.07364,-1.11228 2.42867,-1.76017 3.83273,-2.34422 2.14981,-0.92774 4.43547,-1.32872 6.73032,-1.69397 1.69035,-0.2139 3.402474,-0.44083 5.111354,-0.39774 0.63448,0.016 1.65414,0.163 2.26057,0.23968 3.06116,0.70889 5.99507,1.86044 8.82978,3.19978 2.05844,0.94521 3.8923,2.25915 5.65421,3.66497 1.33557,1.13152 2.49678,2.44667 3.34596,3.97919 1.05784,2.06058 1.74475,4.27109 2.29225,6.51317 0.3962,1.92836 0.58099,3.89526 0.73785,5.85571 0.11266,1.48263 0.12701,2.97006 0.13723,4.45617 -0.0286,1.07262 -0.29759,2.11663 -0.64641,3.12509 -0.4268,1.15738 -1.06525,2.21583 -1.70153,3.26653 -0.64332,1.12118 -1.41498,2.15792 -2.18403,3.19415 -0.46622,0.62957 -0.94715,1.29745 -1.5584,1.79877 -0.58456,0.48371 -1.23802,0.8815 -1.87761,1.28826 -0.8771,0.49776 -1.74997,1.09367 -2.54651,1.64643 0.0458,-0.0322 0.0915,-0.0644 0.13731,-0.0966 -0.0251,0.009 -0.0925,0.0472 -0.0754,0.0267 0.0255,-0.0304 0.14184,-0.0675 0.10295,-0.0597 -0.40417,0.0814 -0.78863,0.28077 -1.18046,0.40904 -0.69293,0.27965 -1.41771,0.46236 -2.14298,0.63501 -1.33852,0.37521 -2.69786,0.66142 -4.05304,0.96817 -1.51701,0.42727 -3.0991,0.5134 -4.66466,0.59712 -1.90078,0.0785 -3.802714,0.10501 -5.702934,0.0111 -1.0636,-0.14529 -2.16682,-0.17358 -3.19812,-0.49578 -0.2755,-0.0759 -0.5811,-0.15359 -0.85346,-0.24982 -0.0627,-0.0221 -0.23778,-0.0399 -0.18346,-0.0783 0.0595,-0.042 0.14177,0.0841 0.21028,0.0593 0.0483,-0.0174 -0.0836,-0.0596 -0.1249,-0.0902 -0.0529,-0.0392 -0.10501,-0.0793 -0.15751,-0.11898 0.11103,0.0565 -0.0267,-0.0649 -0.01,-0.0563 0.23927,0.12103 0.81137,1.18728 0.35628,0.31029 -0.72264,-1.38588 -1.87775,-2.44099 -3.08217,-3.40156 -0.21605,-0.16889 -0.88327,-0.8015 -0.2473,-0.19699 -4.88972,-5.76515 -13.04288,1.14996 -8.15316,6.91511 v 0 c 0.55169,0.59733 1.11904,1.16169 1.76174,1.66162 0.10537,0.0824 0.21873,0.15452 0.32171,0.2399 0.0603,0.05 0.10825,0.20306 0.17319,0.15913 0.0632,-0.0427 -0.087,-0.12544 -0.12709,-0.19031 -0.0318,-0.0513 -0.0606,-0.10444 -0.0884,-0.15805 -0.0116,-0.0223 -0.0196,-0.0463 -0.0294,-0.0695 0.16789,0.31292 0.46759,0.87276 0.55931,1.01686 0.64151,1.00785 1.51118,1.83354 2.46066,2.54643 1.37368,0.93513 2.84199,1.68423 4.47891,2.03638 1.77709,0.4476 3.59079,0.70785 5.419,0.83905 2.26749,0.10666 4.537114,0.0871 6.804884,-0.0149 2.16342,-0.12203 4.34118,-0.2833 6.44274,-0.84613 1.39663,-0.31809 2.79864,-0.61283 4.17903,-0.99756 1.03813,-0.25017 2.07578,-0.52029 3.07407,-0.90341 1.14412,-0.39227 2.31163,-0.75374 3.34638,-1.39724 0.8404,-0.55753 1.65562,-1.15497 2.54157,-1.64326 1.18095,-0.75503 2.3675,-1.51704 3.40359,-2.46807 1.05116,-1.00014 2.0427,-2.06968 2.87097,-3.26501 0.96774,-1.30641 1.9276,-2.62159 2.74459,-4.02973 1.05495,-1.74697 2.05648,-3.5353 2.71464,-5.47623 0.6727,-2.11622 1.18361,-4.28614 1.17534,-6.52176 -0.0124,-1.74903 -0.0353,-3.49939 -0.17183,-5.24402 -0.20749,-2.5387 -0.45938,-5.08435 -1.01902,-7.57324 -0.81514,-3.23549 -1.8407,-6.42473 -3.45662,-9.36084 -0.26486,-0.43782 -0.51438,-0.88529 -0.79457,-1.31346 -1.39337,-2.12924 -3.18036,-3.97383 -5.11611,-5.61212 -2.41842,-1.91144 -4.9507,-3.67742 -7.76272,-4.97096 -3.87054,-1.80291 -7.88169,-3.3669 -12.0991,-4.13488 -1.57629,-0.18085 -2.17845,-0.28798 -3.79385,-0.31182 -2.1854,-0.0323 -4.371614,0.24277 -6.532664,0.52834 -1.01464,0.16267 -2.29675,0.35704 -3.2892,0.56642 -2.03917,0.43021 -4.02056,1.08552 -5.95547,1.85368 -1.18074,0.51267 -1.69235,0.70088 -2.82807,1.33413 -1.81275,1.01074 -3.43924,2.30873 -4.86291,3.81664 -0.88826,1.0404 -1.24232,1.39141 -2.0049,2.54864 -1.34017,2.03373 -2.2433,4.29259 -2.90792,6.62793 -0.15982,0.6695 -0.34446,1.33355 -0.479465,2.00849 -0.661691,3.30815 -0.70535,6.71466 -0.569301,10.07196 0.229971,3.53393 0.590225,7.05822 1.354956,10.52246 0.627,2.69956 1.3032,5.39094 2.2559,7.99754 0.95105,2.43907 2.05011,4.8328 3.66888,6.91185 1.15297,1.43482 2.41463,2.76453 3.71492,4.06661 1.0298,0.91252 2.11683,1.75902 3.25191,2.53747 6.2899,4.19327 12.22008,-4.702 5.93018,-8.89527 z"
       id="path910"
       style="fill:#ff0000;stroke:#f4f0bb;stroke-width:0;stroke-miterlimit:4;stroke-dasharray:none" />
    <path
       sodipodi:nodetypes="ccccccccscscsccccccscsscssccccsscccccscsscssccssscccccccccccccccc"
       d="m 119.80074,164.38225 c 0.68265,0.63603 1.31232,1.31983 1.93833,2.00873 0.86448,0.96957 1.74002,1.93066 2.6208,2.8863 0.73666,0.78669 1.40901,1.62889 2.11189,2.44473 0.69696,0.90359 1.40141,1.80245 2.09458,2.7093 0.69991,1.03308 1.40221,2.06455 2.10512,3.09565 0.78235,1.19544 1.78256,2.22071 2.76975,3.25022 0.90503,0.88763 1.69609,1.87351 2.59057,2.77479 0.32509,0.31248 0.75013,0.7432 0.85309,0.95457 0.0109,0.0226 -0.0331,-0.038 -0.0497,-0.0569 -0.0358,-0.0599 -0.0592,-0.12877 -0.10737,-0.17954 -0.0265,-0.028 0.0249,0.0724 0.0394,0.10789 0.0626,0.1532 0.12485,0.30662 0.19201,0.45796 0.26789,0.60378 0.56787,1.1866 0.881,1.76855 0.4447,0.7477 0.89525,1.4915 1.33908,2.23963 0.21458,0.44268 0.35214,0.75526 0.51286,1.11453 0.26305,0.68178 0.60562,1.33038 0.9662,1.96623 -0.0102,-0.0136 -0.0386,-0.0558 -0.0305,-0.0408 0.49397,0.90325 0.30638,0.66111 1.00565,1.69503 0.0878,0.27115 -0.36429,-0.68322 -0.27788,-0.47408 0.20603,0.49877 0.44389,0.8839 0.71773,1.35922 0.0201,0.0328 0.0804,0.13146 0.0605,0.0984 -0.0446,-0.0742 -0.15992,-0.30474 -0.13488,-0.22211 0.0866,0.28578 0.45522,0.86854 0.63608,1.18089 0.21027,0.38184 0.44151,0.75092 0.67241,1.12094 0.0246,0.0394 0.10329,0.1539 0.0731,0.11848 -0.0362,-0.0425 -0.061,-0.0934 -0.0914,-0.13998 -0.57573,-1.08254 0.68909,1.41288 0.34792,0.75484 0.31096,0.72555 0.57004,1.46029 0.91176,2.17449 0.2424,0.49788 0.50977,0.98488 0.78648,1.4646 3.47277,6.33311 13.68611,0.79103 9.11321,-4.82671 l -0.366,-0.44964 c -0.53939,-0.66264 0.0753,-0.0111 -0.29494,-0.77871 0.021,0.0586 0.074,0.23759 0.0531,0.17895 -0.17851,-0.50109 -0.33228,-1.01322 -0.57141,-1.49147 -0.4952,-1.15702 -0.37209,-0.72475 -0.7706,-1.67326 -0.45958,-0.82816 -0.50594,-0.83384 -0.96224,-1.64715 0.009,0.0221 0.0268,0.0424 0.0268,0.0662 -3e-5,0.017 -0.0192,-0.0285 -0.0268,-0.0439 -0.0733,-0.14728 -0.14257,-0.29647 -0.21578,-0.4438 -0.11012,-0.22163 -0.23352,-0.43671 -0.35576,-0.65211 -0.0447,-0.0789 -0.0964,-0.15398 -0.14448,-0.23097 0.0703,0.13503 0.12925,0.27635 0.21083,0.4051 0.0592,0.0934 -0.0883,-0.20264 -0.14326,-0.29848 -0.0291,-0.0506 0.0902,0.21488 0.0652,0.16221 -0.26899,-0.56623 -0.51236,-1.14494 -0.90785,-1.64259 0.0522,0.0863 0.10852,0.17029 0.15662,0.25884 0.0445,0.082 0.16349,0.33537 0.12108,0.25226 -0.0518,-0.10161 -0.3221,-0.67762 -0.44491,-0.85197 -0.0356,-0.0506 0.0531,0.11148 0.0796,0.16722 -0.086,-0.16852 -0.17191,-0.33705 -0.25787,-0.50557 -0.14087,-0.24809 -0.33727,-0.58038 -0.55655,-1.16283 -0.34081,-0.69657 -0.62339,-1.41944 -1.02175,-2.08889 -0.38093,-0.64147 -0.76082,-1.28358 -1.15545,-1.91693 -0.42499,-0.75773 -0.72204,-1.5668 -1.1099,-2.3425 -0.67714,-1.12607 -1.48287,-2.15399 -2.45551,-3.05236 -0.85379,-0.82996 -1.552,-1.79586 -2.42543,-2.60652 -0.5961,-0.6216 -1.22885,-1.21635 -1.70437,-1.93711 -0.80774,-1.18365 -1.60493,-2.37442 -2.43069,-3.54605 -0.81463,-1.06352 -1.63444,-2.12404 -2.47,-3.17132 -0.77763,-0.90117 -1.5215,-1.83128 -2.33847,-2.69886 -0.86466,-0.93754 -1.72567,-1.87895 -2.57158,-2.83252 -0.7555,-0.83117 -1.52042,-1.65313 -2.33901,-2.42535 -5.17616,-5.08709 -12.49637,2.10714 -7.3202,7.19422 z"
       id="path912"
       style="fill:#ff0000;stroke:#f4f0bb;stroke-width:0;stroke-miterlimit:4;stroke-dasharray:none" />
    <path
       sodipodi:nodetypes="ccccccccccccccssccccccccccccccc"
       d="m 82.625576,156.32119 c -0.919848,0.64366 -1.784715,1.36408 -2.62286,2.11002 -0.997119,0.94887 -1.923846,1.96718 -2.760046,3.05978 -0.924375,1.20164 -1.631545,2.54036 -2.259473,3.91439 -0.559842,1.39443 -1.14028,2.77291 -1.859274,4.09337 -0.91539,1.69113 -1.976472,3.29388 -3.041195,4.89255 -1.098643,1.72783 -2.126081,3.50114 -3.109048,5.29703 -1.195985,2.11962 -2.305875,4.28124 -3.267572,6.51698 -0.814358,1.77094 -1.332815,3.64189 -1.76875,5.53373 -0.222316,1.10568 -0.440275,2.21198 -0.584642,3.33096 -0.08242,1.1577 -0.211495,2.31096 -0.304287,3.46797 -0.08539,1.11009 -0.10854,2.22361 -0.120107,3.33651 -0.0059,0.81535 -0.0044,1.63073 -0.0034,2.4461 0,0 0.0031,-2.83819 0.0034,-2.4461 -2.923915,6.61458 10.693897,11.17421 10.688478,3.61435 v 0 c -2.64e-4,-0.39375 -5.29e-4,-0.7875 -0.0011,-1.18124 -7.94e-4,-0.77503 -0.0024,-1.55008 0.0029,-2.3251 0.0085,-0.86712 0.02307,-1.73488 0.08722,-2.59999 0.07818,-1.00164 0.200758,-1.99935 0.257128,-3.00258 0.0831,-0.75573 0.262956,-1.49624 0.393102,-2.24442 0.294693,-1.28281 0.612418,-2.55877 1.19063,-3.75239 0.800171,-1.92488 1.805869,-3.7498 2.811206,-5.57355 0.828339,-1.52339 1.70503,-3.02165 2.623013,-4.4927 1.25227,-1.88046 2.490213,-3.77259 3.563226,-5.7634 0.817178,-1.53694 1.551109,-3.10994 2.176528,-4.73529 0.301951,-0.67581 0.624107,-1.34328 1.085961,-1.9281 0.369102,-0.55366 0.88855,-0.99037 1.323089,-1.49054 0.459359,-0.41415 0.9364,-0.81537 1.426099,-1.1834 6.289902,-4.19327 0.359725,-13.08854 -5.930181,-8.89527 z"
       id="path914"
       style="fill:#ff0000;stroke:#f4f0bb;stroke-width:0;stroke-miterlimit:4;stroke-dasharray:none" />
  </g>
</svg>
